<mxfile host="app.diagrams.net" modified="2023-05-13T20:29:22.735Z" agent="Mozilla/5.0 (Windows NT 10.0; Win64; x64) AppleWebKit/537.36 (KHTML, like Gecko) Chrome/113.0.0.0 Safari/537.36" etag="Z_qBkCxG31HrZyoZi1jP" version="21.3.0" type="device">
  <diagram name="PÃ¡gina-1" id="lXxEtFzn19Su_aUD9EvK">
    <mxGraphModel dx="1562" dy="829" grid="1" gridSize="10" guides="1" tooltips="1" connect="1" arrows="1" fold="1" page="1" pageScale="1" pageWidth="827" pageHeight="1169" math="0" shadow="0">
      <root>
        <mxCell id="0" />
        <mxCell id="1" parent="0" />
        <mxCell id="VWabECNJqraE9SR4k_y3-4" value="" style="rounded=1;whiteSpace=wrap;html=1;fillColor=#d5e8d4;strokeColor=#82b366;" vertex="1" parent="1">
          <mxGeometry x="280" y="110" width="240" height="320" as="geometry" />
        </mxCell>
        <mxCell id="VWabECNJqraE9SR4k_y3-2" value="&lt;p style=&quot;line-height: 0%;&quot;&gt;&lt;b&gt;ZooKeeper&lt;/b&gt;&lt;/p&gt;" style="rounded=0;whiteSpace=wrap;html=1;fillColor=#d5e8d4;strokeColor=none;" vertex="1" parent="1">
          <mxGeometry x="330" y="120" width="140" height="40" as="geometry" />
        </mxCell>
        <mxCell id="VWabECNJqraE9SR4k_y3-5" value="" style="rounded=1;whiteSpace=wrap;html=1;fillColor=#dae8fc;strokeColor=#6c8ebf;" vertex="1" parent="1">
          <mxGeometry x="290" y="165" width="220" height="245" as="geometry" />
        </mxCell>
        <mxCell id="VWabECNJqraE9SR4k_y3-3" value="&lt;b&gt;Broker&lt;/b&gt;" style="rounded=0;whiteSpace=wrap;html=1;strokeColor=none;fillColor=none;" vertex="1" parent="1">
          <mxGeometry x="340" y="175" width="120" height="60" as="geometry" />
        </mxCell>
        <mxCell id="VWabECNJqraE9SR4k_y3-6" value="&lt;font style=&quot;font-size: 18px;&quot;&gt;Producer&lt;br&gt;&lt;br&gt;Order&lt;/font&gt;" style="rounded=0;whiteSpace=wrap;html=1;fillColor=#fff2cc;strokeColor=#d6b656;" vertex="1" parent="1">
          <mxGeometry x="80" y="280" width="120" height="70" as="geometry" />
        </mxCell>
        <mxCell id="VWabECNJqraE9SR4k_y3-7" value="&lt;b&gt;Topic&lt;br&gt;&lt;br style=&quot;border-color: var(--border-color);&quot;&gt;&lt;br style=&quot;border-color: var(--border-color);&quot;&gt;order_topics&lt;/b&gt;" style="rounded=1;whiteSpace=wrap;html=1;fillColor=#e1d5e7;strokeColor=#9673a6;" vertex="1" parent="1">
          <mxGeometry x="300" y="240" width="200" height="150" as="geometry" />
        </mxCell>
        <mxCell id="VWabECNJqraE9SR4k_y3-8" value="" style="endArrow=classic;html=1;rounded=0;exitX=1;exitY=0.5;exitDx=0;exitDy=0;" edge="1" parent="1" source="VWabECNJqraE9SR4k_y3-6">
          <mxGeometry width="50" height="50" relative="1" as="geometry">
            <mxPoint x="390" y="400" as="sourcePoint" />
            <mxPoint x="320" y="315" as="targetPoint" />
          </mxGeometry>
        </mxCell>
        <mxCell id="VWabECNJqraE9SR4k_y3-11" value="&lt;font style=&quot;font-size: 18px;&quot;&gt;Consumer&lt;br&gt;&lt;br&gt;Email&lt;/font&gt;" style="rounded=0;whiteSpace=wrap;html=1;fillColor=#ffe6cc;strokeColor=#d79b00;" vertex="1" parent="1">
          <mxGeometry x="600" y="280" width="120" height="70" as="geometry" />
        </mxCell>
        <mxCell id="VWabECNJqraE9SR4k_y3-19" value="" style="endArrow=classic;html=1;rounded=0;exitX=0;exitY=0.5;exitDx=0;exitDy=0;" edge="1" parent="1" source="VWabECNJqraE9SR4k_y3-11">
          <mxGeometry width="50" height="50" relative="1" as="geometry">
            <mxPoint x="570" y="314.5" as="sourcePoint" />
            <mxPoint x="480" y="314.5" as="targetPoint" />
          </mxGeometry>
        </mxCell>
        <mxCell id="VWabECNJqraE9SR4k_y3-21" value="" style="endArrow=classic;html=1;rounded=0;exitX=0.671;exitY=-0.02;exitDx=0;exitDy=0;exitPerimeter=0;" edge="1" parent="1" source="VWabECNJqraE9SR4k_y3-12">
          <mxGeometry width="50" height="50" relative="1" as="geometry">
            <mxPoint x="550" y="370.5" as="sourcePoint" />
            <mxPoint x="430" y="370" as="targetPoint" />
          </mxGeometry>
        </mxCell>
        <mxCell id="VWabECNJqraE9SR4k_y3-23" value="" style="endArrow=classic;html=1;rounded=0;exitX=0.671;exitY=-0.02;exitDx=0;exitDy=0;exitPerimeter=0;" edge="1" parent="1">
          <mxGeometry width="50" height="50" relative="1" as="geometry">
            <mxPoint x="371" y="369" as="sourcePoint" />
            <mxPoint x="370" y="480" as="targetPoint" />
          </mxGeometry>
        </mxCell>
        <mxCell id="VWabECNJqraE9SR4k_y3-24" value="" style="rounded=0;whiteSpace=wrap;html=1;strokeColor=#d6b656;fillColor=#fff2cc;" vertex="1" parent="1">
          <mxGeometry x="310" y="480" width="90" height="70" as="geometry" />
        </mxCell>
        <mxCell id="VWabECNJqraE9SR4k_y3-25" value="" style="rounded=0;whiteSpace=wrap;html=1;strokeColor=#d79b00;fillColor=#ffe6cc;" vertex="1" parent="1">
          <mxGeometry x="400" y="480" width="90" height="70" as="geometry" />
        </mxCell>
        <mxCell id="VWabECNJqraE9SR4k_y3-12" value="&lt;font style=&quot;font-size: 18px;&quot;&gt;Producer/Consumer&lt;br&gt;&lt;br&gt;Stock&lt;/font&gt;" style="rounded=0;whiteSpace=wrap;html=1;fillColor=none;" vertex="1" parent="1">
          <mxGeometry x="310" y="480" width="180" height="70" as="geometry" />
        </mxCell>
      </root>
    </mxGraphModel>
  </diagram>
</mxfile>
